<svg clip-rule="evenodd" fill-rule="evenodd" stroke-linejoin="round" stroke-miterlimit="2" viewBox="0 0 24 24" xmlns="http://www.w3.org/2000/svg"><path d="m3.3 15.4c.717 0 1.3.583 1.3 1.3s-.583 1.3-1.3 1.3-1.3-.583-1.3-1.3.583-1.3 1.3-1.3zm2.7 1.85c0-.414.336-.75.75-.75h14.5c.414 0 .75.336.75.75s-.336.75-.75.75h-14.5c-.414 0-.75-.336-.75-.75zm-2.7-6.55c.717 0 1.3.583 1.3 1.3s-.583 1.3-1.3 1.3-1.3-.583-1.3-1.3.583-1.3 1.3-1.3zm2.7 1.3c0-.414.336-.75.75-.75h14.5c.414 0 .75.336.75.75s-.336.75-.75.75h-14.5c-.414 0-.75-.336-.75-.75zm-2.7-6c.717 0 1.3.583 1.3 1.3s-.583 1.3-1.3 1.3-1.3-.583-1.3-1.3.583-1.3 1.3-1.3zm2.7.75c0-.414.336-.75.75-.75h14.5c.414 0 .75.336.75.75s-.336.75-.75.75h-14.5c-.414 0-.75-.336-.75-.75z" fill-rule="nonzero"/></svg>